<svg width="100" height="100" viewBox="0 0 100 100" fill="none" xmlns="http://www.w3.org/2000/svg">
<g clip-path="url(#clip0_517_602)">
<path d="M50 100C77.6142 100 100 77.6143 100 50.0001C100 22.3858 77.6142 6.10352e-05 50 6.10352e-05C22.3858 6.10352e-05 0 22.3858 0 50.0001C0 77.6143 22.3858 100 50 100Z" fill="#999999"/>
<path d="M66.2577 15.3474H55.1815C48.6085 15.3474 41.2974 18.1119 41.2974 27.6397C41.3295 30.9596 41.2974 34.139 41.2974 37.7173H33.6934V49.8176H41.5328V84.6524H55.938V49.5878H65.446L66.3063 37.6833H55.6898C55.6898 37.6833 55.7136 32.3878 55.6898 30.8499C55.6898 27.0847 59.6076 27.3003 59.8433 27.3003C61.7076 27.3003 65.3326 27.3058 66.2631 27.3003V15.3474H66.2577Z" fill="white"/>
</g>
<defs>
<clipPath id="clip0_517_602">
<rect width="100" height="100" fill="white"/>
</clipPath>
</defs>
</svg>
