<svg width="6" height="14" viewBox="0 0 6 14" fill="none" xmlns="http://www.w3.org/2000/svg">
<path fill-rule="evenodd" clip-rule="evenodd" d="M3.7401 9.957C4.08039 10.6565 4.4576 11.3375 4.8701 11.997C4.91883 12.063 4.9539 12.1381 4.97325 12.2178C4.99261 12.2976 4.99581 12.3804 4.98277 12.4614C4.96974 12.5424 4.94072 12.62 4.89733 12.6897C4.85393 12.7593 4.79707 12.8196 4.73009 12.867L4.43016 13.167C4.33518 13.2846 4.21207 13.3764 4.07225 13.4339C3.93243 13.4914 3.78036 13.5128 3.63011 13.496C3.11725 13.5008 2.60818 13.4078 2.13011 13.222C0.940114 12.543 0.480099 10.872 0.240099 9.559C-0.0866422 7.88042 -0.0798269 6.15394 0.260118 4.47799C0.510118 3.16099 0.99005 1.48599 2.19005 0.792995C2.66734 0.602898 3.1763 0.504838 3.69005 0.503993C3.8398 0.484795 3.99201 0.504322 4.13207 0.560695C4.27212 0.617068 4.3954 0.708412 4.4901 0.825999L4.79015 1.126C4.9167 1.23004 4.99857 1.37856 5.01903 1.5411C5.03949 1.70364 4.99696 1.86785 4.90013 2C4.44013 2.8 4.11013 3.36999 3.77013 4.04499C3.62013 4.32499 3.50007 4.303 3.21007 4.259C3.02007 4.231 2.8901 4.20999 2.7401 4.18699C2.67026 4.1616 2.59587 4.15104 2.52172 4.15599C2.44756 4.16093 2.37529 4.18126 2.30943 4.21569C2.24358 4.25013 2.18564 4.29791 2.13927 4.35598C2.0929 4.41406 2.05915 4.48114 2.04015 4.55299C1.78985 5.34797 1.65842 6.17559 1.65013 7.009C1.64865 7.841 1.7734 8.66841 2.02013 9.46299C2.03784 9.53435 2.07052 9.60111 2.11608 9.65882C2.16164 9.71653 2.21899 9.76386 2.28429 9.79765C2.34959 9.83144 2.42143 9.85091 2.49486 9.85476C2.56828 9.85861 2.64159 9.84677 2.71007 9.82L3.18016 9.74499C3.47016 9.69799 3.5901 9.67899 3.7401 9.95199V9.957Z" fill="#333333"/>
</svg>
